<svg xmlns="http://www.w3.org/2000/svg" xmlns:xlink="http://www.w3.org/1999/xlink" width="356" zoomAndPan="magnify" viewBox="0 0 267 74.999997" height="100" preserveAspectRatio="xMidYMid meet" version="1.0"><defs><g/><clipPath id="id1"><path d="M 19.046875 14.144531 L 65.546875 14.144531 L 65.546875 60.644531 L 19.046875 60.644531 Z M 19.046875 14.144531 " clip-rule="nonzero"/></clipPath></defs><path fill="rgb(1.179504%, 38.819885%, 39.99939%)" d="M 255.40625 75 L 11.59375 75 C 5.214844 75 0.015625 69.796875 0.015625 63.414062 L 0.015625 11.585938 C 0.015625 5.203125 5.214844 0 11.59375 0 L 255.40625 0 C 261.785156 0 266.984375 5.203125 266.984375 11.585938 L 266.984375 63.414062 C 266.984375 69.796875 261.785156 75 255.40625 75 " fill-opacity="1" fill-rule="nonzero"/><path fill="rgb(100%, 100%, 100%)" d="M 42.300781 24.375 C 39.21875 24.375 36.71875 26.875 36.71875 29.960938 C 36.71875 33.042969 39.21875 35.542969 42.300781 35.542969 C 45.386719 35.542969 47.882812 33.042969 47.882812 29.960938 C 47.882812 26.875 45.386719 24.375 42.300781 24.375 " fill-opacity="1" fill-rule="nonzero"/><g clip-path="url(#id1)"><path fill="rgb(100%, 100%, 100%)" d="M 42.300781 51.636719 C 42.300781 51.636719 31.824219 37.378906 31.824219 31.59375 C 31.824219 25.808594 36.515625 21.117188 42.300781 21.117188 C 48.089844 21.117188 52.777344 25.808594 52.777344 31.59375 C 52.777344 37.378906 42.300781 51.636719 42.300781 51.636719 Z M 42.300781 14.148438 C 29.460938 14.148438 19.050781 24.558594 19.050781 37.398438 C 19.050781 50.242188 29.460938 60.652344 42.300781 60.652344 C 55.144531 60.652344 65.554688 50.242188 65.554688 37.398438 C 65.554688 24.558594 55.144531 14.148438 42.300781 14.148438 " fill-opacity="1" fill-rule="nonzero"/></g><g fill="rgb(100%, 100%, 100%)" fill-opacity="1"><g transform="translate(70.795847, 49.850658)"><g><path d="M 17.4375 -4.078125 L 17.078125 0 L 3 0 L 3.28125 -7.765625 L 3 -26.046875 L 8.578125 -26.046875 L 8.25 -8.25 L 8.375 -4.53125 L 17.109375 -4.53125 Z M 17.4375 -4.078125 "/></g></g></g><g fill="rgb(100%, 100%, 100%)" fill-opacity="1"><g transform="translate(88.307, 49.850658)"><g><path d="M 13.46875 -26.421875 C 17.132812 -26.421875 19.957031 -25.304688 21.9375 -23.078125 C 23.925781 -20.847656 24.921875 -17.6875 24.921875 -13.59375 C 24.921875 -9.113281 23.84375 -5.660156 21.6875 -3.234375 C 19.53125 -0.804688 16.484375 0.40625 12.546875 0.40625 C 8.898438 0.40625 6.082031 -0.734375 4.09375 -3.015625 C 2.113281 -5.296875 1.125 -8.523438 1.125 -12.703125 C 1.125 -17.097656 2.195312 -20.484375 4.34375 -22.859375 C 6.488281 -25.234375 9.53125 -26.421875 13.46875 -26.421875 Z M 12.984375 -22 C 10.828125 -22 9.265625 -21.328125 8.296875 -19.984375 C 7.328125 -18.640625 6.84375 -16.441406 6.84375 -13.390625 C 6.84375 -9.910156 7.316406 -7.425781 8.265625 -5.9375 C 9.222656 -4.457031 10.8125 -3.71875 13.03125 -3.71875 C 15.1875 -3.71875 16.75 -4.398438 17.71875 -5.765625 C 18.6875 -7.128906 19.171875 -9.359375 19.171875 -12.453125 C 19.171875 -15.878906 18.691406 -18.328125 17.734375 -19.796875 C 16.773438 -21.265625 15.191406 -22 12.984375 -22 Z M 12.984375 -22 "/></g></g></g><g fill="rgb(100%, 100%, 100%)" fill-opacity="1"><g transform="translate(114.310847, 49.850658)"><g><path d="M 13.59375 -26.375 C 16.125 -26.375 18.398438 -25.847656 20.421875 -24.796875 L 19.453125 -20.234375 L 19.015625 -20.03125 C 18.203125 -20.59375 17.3125 -21.035156 16.34375 -21.359375 C 15.375 -21.679688 14.375 -21.84375 13.34375 -21.84375 C 9.0625 -21.84375 6.921875 -19.023438 6.921875 -13.390625 C 6.921875 -10.335938 7.476562 -8.050781 8.59375 -6.53125 C 9.71875 -5.007812 11.359375 -4.25 13.515625 -4.25 C 14.515625 -4.25 15.546875 -4.398438 16.609375 -4.703125 C 17.671875 -5.015625 18.632812 -5.441406 19.5 -5.984375 L 19.984375 -5.703125 L 19.53125 -1.046875 C 17.488281 -0.109375 15.332031 0.359375 13.0625 0.359375 C 9.175781 0.359375 6.210938 -0.769531 4.171875 -3.03125 C 2.140625 -5.300781 1.125 -8.550781 1.125 -12.78125 C 1.125 -17.09375 2.207031 -20.4375 4.375 -22.8125 C 6.550781 -25.1875 9.625 -26.375 13.59375 -26.375 Z M 13.59375 -26.375 "/></g></g></g><g fill="rgb(100%, 100%, 100%)" fill-opacity="1"><g transform="translate(135.219075, 49.850658)"><g><path d="M 23.625 0 L 18.046875 0 L 17.390625 -3.390625 L 16.703125 -5.828125 L 11.609375 -5.953125 L 7.125 -5.828125 L 6.4375 -3.6875 L 5.75 0 L 0.328125 0 L 9.140625 -26.046875 L 15.65625 -26.046875 Z M 15.53125 -10.078125 L 12.453125 -20.921875 L 12.09375 -20.921875 L 8.53125 -10.078125 L 12.015625 -9.984375 Z M 15.53125 -10.078125 "/></g></g></g><g fill="rgb(100%, 100%, 100%)" fill-opacity="1"><g transform="translate(159.483947, 49.850658)"><g><path d="M 19.78125 -25.609375 L 19.453125 -21.515625 L 14.5625 -21.765625 L 12.9375 -21.765625 L 12.75 -8.25 L 12.984375 0 L 7.484375 0 L 7.765625 -7.765625 L 7.5625 -21.765625 L 5.953125 -21.765625 L 0.96875 -21.515625 L 0.609375 -21.96875 L 0.96875 -26.046875 L 19.453125 -26.046875 Z M 19.78125 -25.609375 "/></g></g></g><g fill="rgb(100%, 100%, 100%)" fill-opacity="1"><g transform="translate(179.826002, 49.850658)"><g><path d="M 8.421875 -8.25 L 8.65625 0 L 3.15625 0 L 3.4375 -7.765625 L 3.15625 -26.046875 L 8.734375 -26.046875 Z M 8.421875 -8.25 "/></g></g></g><g fill="rgb(100%, 100%, 100%)" fill-opacity="1"><g transform="translate(191.756226, 49.850658)"><g><path d="M 13.46875 -26.421875 C 17.132812 -26.421875 19.957031 -25.304688 21.9375 -23.078125 C 23.925781 -20.847656 24.921875 -17.6875 24.921875 -13.59375 C 24.921875 -9.113281 23.84375 -5.660156 21.6875 -3.234375 C 19.53125 -0.804688 16.484375 0.40625 12.546875 0.40625 C 8.898438 0.40625 6.082031 -0.734375 4.09375 -3.015625 C 2.113281 -5.296875 1.125 -8.523438 1.125 -12.703125 C 1.125 -17.097656 2.195312 -20.484375 4.34375 -22.859375 C 6.488281 -25.234375 9.53125 -26.421875 13.46875 -26.421875 Z M 12.984375 -22 C 10.828125 -22 9.265625 -21.328125 8.296875 -19.984375 C 7.328125 -18.640625 6.84375 -16.441406 6.84375 -13.390625 C 6.84375 -9.910156 7.316406 -7.425781 8.265625 -5.9375 C 9.222656 -4.457031 10.8125 -3.71875 13.03125 -3.71875 C 15.1875 -3.71875 16.75 -4.398438 17.71875 -5.765625 C 18.6875 -7.128906 19.171875 -9.359375 19.171875 -12.453125 C 19.171875 -15.878906 18.691406 -18.328125 17.734375 -19.796875 C 16.773438 -21.265625 15.191406 -22 12.984375 -22 Z M 12.984375 -22 "/></g></g></g><g fill="rgb(100%, 100%, 100%)" fill-opacity="1"><g transform="translate(217.760073, 49.850658)"><g><path d="M 24.671875 -8.046875 L 24.875 0 L 18.96875 0 L 8.328125 -17.640625 L 8.015625 -17.640625 L 7.96875 -8.984375 L 8.125 0 L 3.15625 0 L 3.4375 -7.6875 L 3.203125 -26.046875 L 9.0625 -26.046875 L 19.703125 -8.421875 L 20.0625 -8.421875 L 19.9375 -25.8125 L 25 -26.125 Z M 24.671875 -8.046875 "/></g></g></g></svg>